<?xml version="1.0" encoding="utf-8"?>
<!-- Generator: Adobe Illustrator 22.0.1, SVG Export Plug-In . SVG Version: 6.00 Build 0)  -->
<svg version="1.1" id="Layer_1" xmlns="http://www.w3.org/2000/svg" xmlns:xlink="http://www.w3.org/1999/xlink" x="0px" y="0px"
	 viewBox="0 0 27 32" style="enable-background:new 0 0 27 32;" xml:space="preserve">
<title>ic_home</title>
<desc>Created with Sketch.</desc>
<g id="ic_home" transform="translate(14.000000, 17.000000)">
	<g id="Group" transform="translate(9.600000, 12.000000) scale(-1, 1) translate(-9.600000, -12.000000) ">
		<path id="Shape" d="M11.6-6.1l0.9,0.7L14-4.3c0.2-1,0.8-1.8,1.5-2.3l-2.8-2.1l0.9-1.1c0.4-0.5,0.3-1.1-0.2-1.5l-2.1,2.8
			C11-8.3,10.9-7.8,11-7.3C11-6.8,11.3-6.4,11.6-6.1L11.6-6.1z"/>
		<path id="Shape_1_" d="M20.4,3.6c-3.1-1.6-5.8-2.1-6.5-1c-0.6,0.9,0.4,2.6,2.3,4.4l-1.8,2.9h-1.2c-0.6,0-1,0.5-1,1.1h1.6h2.1
			l0.7-1.1l1-1.7L18,7.6c-0.1-0.2-0.2-0.5-0.2-0.8c0-0.9,0.7-1.6,1.6-1.6c0,0,0.1,0,0.1,0L20.4,3.6L20.4,3.6z"/>
		<path id="Shape_2_" d="M29.1-6.5c-0.2-0.8-0.8-1.4-1.7-1.4c-0.2,0-0.5,0-0.7,0.1c-0.6,0.3-1,0.9-1,1.6V2c0,0.6-0.5,1.1-1,1.1
			c-0.4,0-0.8-0.3-0.9-0.6c0,0,0-0.1,0-0.1l-1-2.4l1.9-6.5c0,0,0,0,0,0c0-0.1,0-0.1,0.1-0.2c0.7-2.5-0.5-5.2-2.9-6.3l-4.4,1.6
			c-0.5,0.2-0.8,0.8-0.7,1.3l1.1-0.4c0.4-0.2,0.9,0.1,1.1,0.5c0.2,0.5-0.1,0.9-0.5,1.1l-1.2,0.4c0.2,0.5,0.8,0.8,1.3,0.6l1.2-0.5
			c0.1,0.5-0.2,1-0.7,1.2l-2.3,0.9c-1,0.4-1.7,1.4-1.7,2.6c0,0,0,0.1,0,0.1c0,0,0,0.1,0,0.1c0,0,0,0,0,0h-3.7v-1.4
			c0-0.4-0.5-0.7-0.8-0.9L10.3-6v3.5c0,1,0.8,1.8,1.8,1.8h4.1c0.4,0,0.7,0,1.1,0.1c0,0,0,0,0,0c0,0,0,0,0.1,0c0,0,0,0,0,0
			c1.8,0.5,3.2,2.1,3.4,4c0,0,0,0.1,0,0.1c0,0.1,0,0.2,0,0.3c0,1.1-0.4,2.1-1,2.9c0,0.1-0.1,0.1-0.1,0.2c-0.1,0.2-0.2,0.4-0.2,0.7
			c0,0.6,0.5,1.2,1.1,1.2c0.2,0,0.4-0.1,0.6-0.2l2.3-1.4C23.8,7.4,24,7.8,24,8.2c0,0.3-0.1,0.5-0.3,0.7l-1,1.1h-1.2h0h-0.1
			c-0.6,0-1,0.5-1,1.1h2.1h0h1.3c0-1,0.8-1.8,1.8-1.8V6.1c-0.8-0.2-1.4-0.9-1.4-1.8c0,0,0-0.1,0-0.1c0.1,0,0.2,0,0.3,0
			c0.4,0,0.8-0.1,1.1-0.3c0.6-0.4,1-1.1,1-1.9v-8.2c0-0.4,0.3-0.7,0.7-0.7c0.4,0,0.7,0.3,0.7,0.7c-0.5,0.3-0.8,0.9-0.8,1.5
			c0,1,0.8,1.8,1.8,1.8v-3.3C29.1-6.3,29.1-6.4,29.1-6.5L29.1-6.5z"/>
	</g>
</g>
</svg>
